PathFileType	4	(X/Y/Z)	s07c0001.trc
DataRate	CameraRate	NumFrames	NumMarkers	Units	OrigDataRate	OrigDataStartFrame	OrigNumFrames
200	200	4	49	mm	200	0	2000
Frame#	Time	racr			lacr			c7			jug			rlel			rdr			llel			ldr			s2			lic			ric			lasi			rasi			rpsi			lpsi			rgt			lgt			rth1			rth2			rth3			rth4			rlfc			rmfc			rsh1			rsh2			rsh3			rsh4			rlmal			rmmal			rcal			rtoe			rmt5			rmt1			lth1			lth2			lth4			lth3			llfc			lmfc			lsh1			lsh2			lsh3			lsh4			llmal			lmmal			lcal			ltoe			lmt1			lmt5			
		X1	Y1	Z1	X2	Y2	Z2	X3	Y3	Z3	X4	Y4	Z4	X5	Y5	Z5	X6	Y6	Z6	X7	Y7	Z7	X8	Y8	Z8	X9	Y9	Z9	X10	Y10	Z10	X11	Y11	Z11	X12	Y12	Z12	X13	Y13	Z13	X14	Y14	Z14	X15	Y15	Z15	X16	Y16	Z16	X17	Y17	Z17	X18	Y18	Z18	X19	Y19	Z19	X20	Y20	Z20	X21	Y21	Z21	X22	Y22	Z22	X23	Y23	Z23	X24	Y24	Z24	X25	Y25	Z25	X26	Y26	Z26	X27	Y27	Z27	X28	Y28	Z28	X29	Y29	Z29	X30	Y30	Z30	X31	Y31	Z31	X32	Y32	Z32	X33	Y33	Z33	X34	Y34	Z34	X35	Y35	Z35	X36	Y36	Z36	X37	Y37	Z37	X38	Y38	Z38	X39	Y39	Z39	X40	Y40	Z40	X41	Y41	Z41	X42	Y42	Z42	X43	Y43	Z43	X44	Y44	Z44	X45	Y45	Z45	X46	Y46	Z46	X47	Y47	Z47	X48	Y48	Z48	X49	Y49	Z49	
0	0.0000	186.482819	1568.680664	561.522156	217.900925	1568.881958	192.418793	156.703476	1608.336792	373.006866	277.959259	1516.661499	384.377075	250.677246	1222.696777	692.696167	398.230225	984.448792	806.629272	293.250885	1215.155029	95.484856	448.229156	976.900208	-7.100435	121.510521	1061.609375	365.174896	265.427673	1144.065552	229.707962	253.284424	1131.881104	533.950012	332.369904	1075.449219	263.382629	301.514801	1072.699951	526.327332	132.042267	1095.927490	422.289154	150.530853	1103.251099	310.075104	216.938126	975.782471	562.030090	250.513580	973.743103	212.079453	225.080627	847.059814	564.503784	247.488464	761.986389	557.023682	227.037186	679.120972	547.407715	297.471252	765.440186	554.177307	224.698853	537.695007	512.809570	233.757172	526.982178	417.397125	184.032852	400.371094	529.597107	200.781448	314.028259	509.699951	172.018204	232.646820	503.858612	224.034302	318.867889	478.000031	159.475418	91.658928	488.731384	200.218201	105.532372	410.200592	113.962074	41.319324	446.999146	395.630402	85.640030	505.152069	311.176575	35.988068	556.847778	328.377563	43.642784	449.416016	259.411316	856.252319	198.474716	281.789490	771.244568	204.144089	315.936646	773.024170	217.153046	257.538635	685.951111	213.145020	251.497391	531.284302	241.110123	245.216751	515.137878	328.800110	215.886703	396.490112	215.997131	231.606201	313.942352	236.900452	204.123947	227.405594	232.967773	241.381287	317.349335	277.181915	191.019058	91.255005	243.465942	225.372314	111.668106	324.722168	141.696228	37.484470	279.944885	423.373840	92.460991	249.194092	359.494690	47.855606	297.492157	345.559509	52.513039	192.105392	
1	0.0050	186.476852	1568.676147	561.527527	217.933960	1568.882202	192.437210	156.720673	1608.326294	373.028473	277.978088	1516.657593	384.409119	250.682205	1222.697998	692.700317	398.229065	984.407532	806.606079	293.274261	1215.163330	95.503571	448.262634	976.909119	-7.079580	121.525764	1061.597046	365.181885	265.449585	1144.068237	229.721603	253.313263	1131.865723	533.946289	332.406921	1075.447998	263.374603	301.523407	1072.689575	526.347961	132.087418	1095.890259	422.307068	150.547653	1103.250977	310.091064	216.953781	975.784363	562.040283	250.528442	973.752747	212.052719	225.086594	847.055908	564.497925	247.539627	762.011719	557.025696	227.055435	679.121277	547.409912	297.464111	765.465820	554.179016	224.717392	537.680542	512.798584	233.767395	526.990479	417.393951	184.049973	400.352020	529.591553	200.789581	314.007629	509.705750	172.019913	232.646210	503.858673	224.063126	318.866394	477.986053	159.480072	91.652901	488.731812	200.229355	105.531151	410.198547	113.965637	41.307735	447.005432	395.624878	85.642380	505.158600	311.183746	35.954041	556.840332	328.392334	43.625744	449.441620	259.448517	856.250488	198.478195	281.820740	771.241089	204.139618	315.964264	773.032288	217.154572	257.559448	685.960449	213.145828	251.522263	531.296936	241.121368	245.232117	515.128967	328.794373	215.890656	396.496582	215.993896	231.636017	313.929169	236.896469	204.148438	227.401321	232.978363	241.398819	317.341034	277.175507	191.022446	91.251518	243.474060	225.392166	111.666428	324.739899	141.688629	37.486950	279.949280	423.369812	92.463966	249.202225	359.496460	47.854492	297.498627	345.588379	52.496254	192.119019	
2	0.0100	186.478165	1568.652222	561.558350	217.936844	1568.881592	192.479828	156.722702	1608.320557	373.042603	277.971436	1516.650879	384.432220	250.669708	1222.667603	692.710876	398.221069	984.388916	806.616028	293.287415	1215.162720	95.526749	448.280487	976.912231	-7.056808	121.549782	1061.586060	365.183746	265.483154	1144.056396	229.710190	253.309631	1131.871460	533.952332	332.405212	1075.454468	263.375214	301.541351	1072.692627	526.330688	132.114746	1095.885010	422.311035	150.567154	1103.252319	310.092926	216.979691	975.784119	562.046631	250.549393	973.738525	212.053635	225.117188	847.053833	564.510803	247.555206	762.008850	557.027832	227.081253	679.115845	547.390564	297.525299	765.453003	554.180481	224.737686	537.681213	512.799561	233.770508	526.986084	417.371796	184.057785	400.360718	529.588684	200.814423	314.016052	509.690521	172.021317	232.639938	503.864807	224.067734	318.873566	477.993835	159.494934	91.658478	488.732300	200.220963	105.539841	410.185089	113.959534	41.302647	446.988373	395.618134	85.637817	505.150970	311.154358	35.959576	556.857544	328.379822	43.639664	449.442078	259.452637	856.260742	198.462524	281.842316	771.235962	204.151688	315.976807	773.029785	217.156723	257.581726	685.951599	213.161285	251.523941	531.287415	241.110916	245.236725	515.121216	328.795532	215.906860	396.480804	216.000168	231.635635	313.931519	236.912949	204.147507	227.405457	232.974884	241.404785	317.343018	277.159119	191.008575	91.253235	243.464493	225.386429	111.670845	324.732239	141.674942	37.498981	279.937408	423.369324	92.451477	249.203949	359.471130	47.841469	297.488708	345.575653	52.501854	192.121048	
3	0.0150	186.492966	1568.629639	561.573181	217.948334	1568.894897	192.492157	156.740051	1608.307861	373.034729	277.989136	1516.630249	384.440704	249.831604	1222.991577	692.812073	398.216644	984.320801	806.590027	293.500580	1215.398804	95.843445	448.299469	976.907471	-7.035918	121.876205	1061.490967	365.223785	265.479675	1144.059814	229.717117	253.656769	1131.665894	533.862671	332.441040	1075.450806	263.375458	301.556000	1072.685547	526.341980	134.467804	1094.971558	422.016449	150.566528	1103.244385	310.114471	217.236740	975.624878	562.132507	250.550491	973.750977	212.066269	225.130432	847.046570	564.505554	247.718506	762.130127	556.836243	227.080856	679.118042	547.407471	288.776978	766.940491	553.049866	224.751526	537.677551	512.771118	233.802078	526.987122	417.389343	184.074295	400.340515	529.577515	200.814316	314.006226	509.684998	172.020309	232.648270	503.866760	223.937027	317.744385	477.202576	159.130661	91.781456	488.735748	200.208176	105.538147	410.175537	113.959534	41.302647	446.988373	395.615723	85.642799	505.146393	311.170593	35.966221	556.848511	328.394684	43.644810	449.430878	259.661713	856.207703	198.474106	284.081848	768.871643	211.774399	316.201843	772.097412	219.940781	257.590912	685.957581	213.147476	251.506058	531.222473	241.055634	245.233704	515.130066	328.796844	215.864105	396.402527	215.919006	231.632797	313.942657	236.910919	204.035904	227.148636	232.786713	241.621063	317.146179	277.271393	191.024155	91.251167	243.462051	225.386871	111.670128	324.731873	141.677521	37.499836	279.942322	423.368103	92.291687	249.078049	358.901337	47.066566	297.008881	345.560577	52.501472	192.113815	
